<?xml version="1.0" standalone="no"?>
<!DOCTYPE svg PUBLIC "-//W3C//DTD SVG 20010904//EN"
 "http://www.w3.org/TR/2001/REC-SVG-20010904/DTD/svg10.dtd">
<svg version="1.0" xmlns="http://www.w3.org/2000/svg"
 width="626.000000pt" height="615.000000pt" viewBox="0 0 626.000000 615.000000"
 preserveAspectRatio="xMidYMid meet">

<g transform="translate(0.000000,615.000000) scale(0.100000,-0.100000)"
fill="#000000" stroke="none">
<path d="M3327 5690 c-138 -99 -324 -180 -494 -215 -171 -36 -294 -30 -551 26
-73 16 -145 29 -161 29 -16 0 -53 -13 -82 -30 -105 -58 -143 -72 -258 -95
-202 -40 -348 -108 -489 -227 -202 -170 -353 -400 -518 -790 -141 -335 -239
-559 -294 -672 -32 -68 -61 -138 -65 -158 -6 -32 -3 -39 54 -97 73 -74 142
-119 276 -181 230 -108 591 -175 681 -127 28 14 74 93 74 126 0 19 71 226 81
236 7 7 7 -9 2 -45 -4 -30 -7 -300 -7 -600 0 -546 23 -1145 56 -1466 l12 -122
-49 -123 c-43 -111 -49 -133 -49 -204 -1 -98 16 -134 81 -175 87 -56 162 -65
508 -65 290 1 332 3 650 39 627 69 1115 138 1385 196 74 16 213 45 309 65 443
93 584 182 584 367 0 88 -37 190 -109 300 -54 81 -55 83 -75 218 -11 74 -37
245 -59 380 -22 135 -55 360 -75 500 -44 313 -94 623 -139 852 -19 95 -33 174
-31 176 2 2 17 -16 33 -40 38 -54 156 -189 176 -200 24 -14 74 13 171 91 298
238 595 608 595 741 0 57 -73 157 -301 411 -85 94 -187 215 -227 268 -169 222
-376 415 -531 494 -162 83 -229 96 -561 106 -243 8 -272 11 -353 35 -131 39
-167 35 -250 -24z m688 -51 c66 -5 158 -19 205 -30 101 -24 277 -106 375 -177
104 -74 261 -208 299 -255 119 -146 262 -318 407 -488 194 -229 227 -275 211
-291 -8 -8 -15 -8 -20 -3 -5 6 -53 64 -108 130 -277 337 -625 684 -856 856
-105 78 -260 153 -368 179 -47 11 -148 25 -225 30 -151 11 -284 28 -300 39 -9
5 73 12 220 19 22 1 94 -3 160 -9z m-1945 -197 c0 -15 -65 -71 -100 -86 -19
-8 -69 -19 -110 -25 -85 -12 -218 -54 -300 -96 -302 -153 -548 -505 -766
-1095 -90 -245 -152 -403 -191 -487 l-32 -73 -56 0 c-30 0 -55 4 -55 8 0 14
50 132 85 202 33 65 138 307 235 540 145 350 282 581 438 742 86 89 105 103
206 153 128 63 325 130 429 146 81 13 97 19 146 54 33 24 71 33 71 17z"/>
<path d="M5213 5253 c27 -35 50 -63 53 -63 7 0 -65 97 -83 111 -10 8 4 -14 30
-48z"/>
<path d="M5285 5160 c10 -11 20 -20 23 -20 3 0 -3 9 -13 20 -10 11 -20 20 -23
20 -3 0 3 -9 13 -20z"/>
<path d="M5335 5100 c10 -11 20 -20 23 -20 3 0 -3 9 -13 20 -10 11 -20 20 -23
20 -3 0 3 -9 13 -20z"/>
<path d="M5620 4776 c0 -2 8 -10 18 -17 15 -13 16 -12 3 4 -13 16 -21 21 -21
13z"/>
<path d="M5698 4679 c92 -122 128 -249 102 -360 -17 -72 -77 -198 -136 -286
-160 -234 -511 -579 -685 -673 l-56 -30 14 -77 c7 -43 36 -235 64 -427 27
-192 65 -444 84 -560 19 -116 39 -251 46 -301 9 -71 18 -102 44 -145 105 -175
145 -296 146 -436 1 -103 -11 -154 -51 -234 -80 -158 -230 -255 -525 -338
-102 -29 -500 -114 -688 -148 -232 -41 -715 -108 -1038 -144 -532 -59 -670
-70 -904 -70 -304 0 -443 19 -567 79 -75 36 -55 12 25 -29 138 -71 237 -89
512 -92 278 -3 365 0 560 23 94 11 224 24 290 29 150 11 415 42 605 70 41 6
102 15 135 20 33 5 96 16 140 25 44 8 98 15 120 16 33 0 36 2 20 10 -17 8 -17
9 5 4 30 -6 178 17 359 56 73 16 144 29 157 29 13 0 24 4 24 9 0 5 10 7 23 4
14 -3 18 -2 10 4 -8 6 8 9 42 10 66 2 98 11 89 25 -4 6 -3 8 3 5 16 -10 134
14 126 26 -4 6 -1 7 6 2 15 -9 88 9 151 38 75 33 154 69 176 79 11 5 51 39 89
75 53 52 77 85 109 152 39 83 41 89 40 186 0 93 -18 235 -24 190 -1 -11 -6 3
-10 30 -8 48 -19 83 -39 115 -69 110 -110 201 -116 255 -16 149 -47 342 -56
359 -12 20 -18 62 -44 281 -9 72 -22 171 -30 220 -8 50 -17 117 -20 150 -2 33
-9 71 -14 85 -6 14 -15 76 -21 139 -7 74 -16 118 -25 128 -8 8 -15 17 -15 20
0 4 3 4 6 0 7 -7 88 35 115 59 8 8 23 14 32 14 9 0 17 4 17 8 0 5 29 32 65 62
51 42 62 56 53 67 -8 10 -6 13 9 11 25 -4 171 132 165 152 -3 8 0 10 8 5 15
-10 103 82 93 98 -3 5 -2 7 4 4 5 -3 27 15 49 41 21 25 56 64 77 85 20 21 37
44 37 51 0 8 9 25 20 39 11 14 20 30 20 35 0 5 7 15 15 22 16 13 65 105 65
121 0 6 -5 7 -11 3 -7 -4 -7 2 1 17 18 34 24 38 15 10 -4 -14 -3 -21 2 -18 23
14 48 123 45 196 -2 63 -9 86 -42 153 -38 78 -120 200 -142 214 -6 4 8 -17 30
-47z m-758 -3859 c-8 -5 -22 -10 -30 -10 -13 0 -13 1 0 10 8 5 22 10 30 10 13
0 13 -1 0 -10z m-53 -16 c-3 -3 -12 -4 -19 -1 -8 3 -5 6 6 6 11 1 17 -2 13 -5z
m-250 -70 c-3 -3 -12 -4 -19 -1 -8 3 -5 6 6 6 11 1 17 -2 13 -5z m-154 -31
c-7 -2 -19 -2 -25 0 -7 3 -2 5 12 5 14 0 19 -2 13 -5z m-1350 -210 c-7 -2 -19
-2 -25 0 -7 3 -2 5 12 5 14 0 19 -2 13 -5z m-90 -10 c-7 -2 -19 -2 -25 0 -7 3
-2 5 12 5 14 0 19 -2 13 -5z"/>
<path d="M410 3165 c15 -18 173 -115 188 -115 5 0 15 -7 22 -15 7 -9 15 -13
18 -10 3 2 28 -8 56 -24 71 -40 292 -114 343 -115 24 -1 43 -5 43 -10 0 -4 9
-6 20 -3 11 3 20 2 20 -3 0 -4 39 -13 88 -20 48 -7 90 -18 94 -24 4 -6 8 4 8
22 l0 32 -52 0 c-72 1 -268 41 -412 85 -128 39 -308 120 -395 179 -30 20 -48
30 -41 21z"/>
</g>
</svg>
